<svg width="109" height="109" viewBox="0 0 109 109" fill="none" xmlns="http://www.w3.org/2000/svg">
<path d="M93.0916 12.217C91.1116 12.7278 86.9287 13.6519 83.8104 14.2599C75.8656 15.7921 74.6034 16.2544 71.0642 18.8323C66.0401 22.5047 62.5254 29.6067 62.5502 36.0518C62.5751 38.5081 62.9462 40.2595 63.3671 39.7972C63.4661 39.6756 63.8128 38.9703 64.1094 38.2406C65.6192 34.6654 69.9997 29.2176 73.7372 26.2746C75.6431 24.7665 79.4792 23.283 79.4792 24.0613C79.4792 24.3288 78.1674 25.934 76.6082 27.5392C75.1481 29.0714 74.6531 29.7039 71.9059 33.6197C69.0598 37.7298 65.3471 45.0748 62.8476 51.6171C60.4219 57.965 58.6399 63.0238 57.4519 66.8178C55.4471 73.3115 53.6406 78.4433 53.3188 78.5405C52.9228 78.6863 51.8338 75.2083 49.5568 66.5744C46.0176 53.0518 44.5078 48.4063 40.8944 39.9427C38.4194 34.1787 35.1524 29.5574 28.5194 22.4801C24.8813 18.5644 19.7084 14.819 16.5901 13.7977C14.5608 13.1166 14.3873 13.4572 15.922 15.1355C23.149 23.1372 27.3318 29.0715 31.762 37.5109C35.4991 44.6857 38.0731 51.8119 42.751 68.1555C43.939 72.3387 46.5626 82.9915 47.404 87.1261C48.3446 91.7229 49.384 96.2222 49.6561 96.9275C49.7551 97.1463 50.1263 97.4383 50.4978 97.5355C51.3391 97.7544 55.3981 97.7544 56.2646 97.5355C57.5516 97.1708 57.799 96.1736 59.581 84.694C60.769 76.9356 61.7838 72.2902 63.8131 65.3587C67.2533 53.5385 70.9163 44.8801 73.144 43.4697C73.4658 43.2749 75.0498 42.8857 76.708 42.6183C83.143 41.5725 88.3158 38.7756 91.9788 34.3245C94.429 31.3574 95.0727 29.1686 95.6911 21.8721C96.013 18.005 96.211 16.9106 96.9533 14.6001C97.4234 13.0921 97.7453 11.7302 97.6956 11.5599C97.5217 11.1225 97.1257 11.1712 93.0916 12.217Z" fill="#263029"/>
</svg>
