<?xml version="1.0" encoding="UTF-8"?>
<svg id="Capa_2" data-name="Capa 2" xmlns="http://www.w3.org/2000/svg" viewBox="0 0 125.96 154.77">
  <defs>
    
  </defs>
  <g id="Capa_3" data-name="Capa 3">
    <path class="cls-1" d="M26.38,90.08c1.65-3.86,4.5-5.86,8.61-6.05.25-3.6,1.72-6.36,4.89-8.1.3-.17.47-.87.44-1.31-.38-6.19,1.09-12,3.81-17.49,1.93-3.9,5.15-6.19,9.54-6.41,6.49-.32,12.99-.46,19.49-.67,2.7-.09,4.85,1.14,6.93,3.15,1.94-8.92,3.83-17.62,5.83-26.83-4.3,1.38-8.25,2.49-12.1,3.91-9.43,3.47-18.78,7.18-28.23,10.58-6.29,2.26-12.79,3.82-19.55,3.68-5.21-.11-10.01-1.49-13.98-5.02-4.23-3.76-6.04-8.42-4.33-13.96,1.82-5.89,5.58-10.15,11.87-11.19,2.19-.37,4.62.52,6.91.98,1.22.24,2.37.8,3.72,1.27.23-1.75.39-3.39.67-5.01.62-3.56,2.1-6.68,4.91-9.06,5.54-4.68,13.68-2.75,16.5,3.93,1.74,4.1,2.11,8.46,2.29,12.83.11,2.69-.04,5.4-.18,8.1-.09,1.67-1.1,2.56-2.49,2.46-1.38-.1-2.17-1.11-2.1-2.81.22-5.36.22-10.7-.96-15.97-.16-.73-.38-1.44-.61-2.15-.7-2.2-2.12-3.67-4.43-4.11-2.51-.47-4.52.44-6.09,2.39-2.06,2.56-2.41,5.65-2.67,8.76-.11,1.26-.15,2.53-.29,3.78-.26,2.3-1.52,3.04-3.73,2.26-2.65-.94-5.3-1.89-7.96-2.78-2.31-.77-4.56-.39-6.29,1.25-1.56,1.47-3.08,3.15-4.04,5.03-1.89,3.71-1,7.33,2.07,10.17,2.78,2.57,6.14,3.77,9.86,4.04,7.16.52,13.95-1.3,20.56-3.68,9.08-3.26,18.02-6.92,27.09-10.2,4.42-1.6,9.01-2.7,13.5-4.12.55-.17,1.18-.83,1.35-1.39.49-1.59.73-3.25,1.12-4.87.4-1.69,1.57-2.57,2.91-2.24,1.39.35,2.03,1.57,1.68,3.27-.27,1.29-.54,2.58-.81,3.88-.01.05.01.11.06.45,1.48,0,3.02-.1,4.53.02,8.86.69,14.7,5.45,17.77,13.62,1.1,2.94,1.6,6.09,2.5,9.11.23.78.77,1.67,1.43,2.08,7.21,4.44,9.67,11.41,5.76,18.94-4.28,8.24-5.88,16.85-5.51,25.98.06,1.55.29,3.09.45,4.64.15,1.48-.45,2.48-1.93,2.8-1.31.28-2.49-.68-2.69-2.26-1.32-10.7-.6-21.11,4.45-30.9.68-1.32,1.3-2.69,1.8-4.1,1.37-3.87.08-7.55-3.49-9.98-.14.53-.27,1.02-.41,1.5-.89,3-2.43,5.58-4.91,7.53-2.98,2.34-6.17,2.67-8.96.95-3.03-1.86-4.57-5.4-3.9-8.92.99-5.18,5.58-8.65,11.22-8.48.51.01,1.03.06,1.8.1-.12-.73-.13-1.41-.35-2-1.14-3.05-1.99-6.28-3.58-9.07-2.82-4.94-7.56-6.8-13.1-6.84-4.06-.03-4.08-.05-4.94,3.89-2.34,10.66-4.65,21.33-6.97,32-.06.27-.06.56-.1.85,1.51-.4,2.94-1.01,4.41-1.11,5.08-.35,8.82,3.14,9.41,8.48,1.27,11.49,2.59,22.97,3.89,34.45.02.17.09.32.22.76,3.69-1.34,5.81,1.12,8.03,3.43,1.91,1.99,3.91,3.9,5.85,5.87,2.45,2.5,2.5,5.47.04,7.94-10.28,10.31-20.57,20.61-30.88,30.88-2.39,2.38-5.39,2.36-7.8,0-2.51-2.45-4.97-4.95-7.45-7.44-2.71-2.72-2.97-4.72-.93-8.18-2.94-1.95-5.83-4.03-8.9-5.79-1.04-.6-2.55-.57-3.83-.53-1.42.04-2.85.37-4.26.63-4.11.76-7.66-.34-10.59-3.25-12.55-12.43-25.09-24.88-37.59-37.36-3.46-3.46-3.43-8.87-.1-12.28,3.38-3.46,8.81-3.54,12.4-.07,3.43,3.32,6.77,6.74,10.15,10.11.39.39.81.76,1.34,1.25ZM71.24,134.14c8.32-8.33,16.51-16.5,24.62-24.74.47-.48.54-1.57.46-2.34-.83-7.72-1.73-15.43-2.61-23.14-.55-4.8-1.09-9.6-1.69-14.39-.3-2.41-2.15-3.92-4.37-3.71-2.26.22-3.7,1.96-3.63,4.42.02.8.12,1.61.2,2.41.51,4.98,1,9.96,1.54,14.93.15,1.37-.26,2.41-1.24,3.39-1.87,1.88-3.21,4.17-3.45,6.8-.2,2.2.1,4.46.27,6.68.11,1.48-.37,2.57-1.85,2.84-1.48.28-2.44-.54-2.72-1.99-.28-1.52-.56-3.06-.63-4.6-.19-4.07,1.04-7.77,3.34-11.06-.14-.16-.17-.22-.22-.24-.4-.22-.8-.44-1.21-.65-9.84-5.06-17.52-12.55-24.02-21.36-1.04-1.42-.77-3.07.6-3.66.71-.31,1.56-.36,2.36-.39,5.35-.19,10.7-.31,16.04-.51,2.61-.1,4.3-1.88,4.19-4.27-.11-2.31-1.9-3.91-4.43-3.84-6.15.17-12.31.36-18.46.61-2.67.11-4.74,1.36-5.95,3.79-2.29,4.6-3.58,9.43-3.39,14.62.03.92.22,1.39,1.23,1.68,1.13.33,2.33.88,3.15,1.68,4.58,4.45,9.21,8.86,13.54,13.55,4.17,4.53,1.92,12.02-3.94,13.87-.92.29-1.9.4-2.88.6-.17.88-.26,1.8-.52,2.67-1.93,6.49-9.85,8.3-14.84,3.34-9.39-9.33-18.72-18.71-28.08-28.06-.49-.49-.96-1.01-1.51-1.42-2.3-1.7-5.4-.65-6.26,2.09-.63,2,.36,3.4,1.69,4.72,11.97,11.87,23.98,23.7,35.85,35.67,2.59,2.61,5.34,3.61,8.85,2.71,5.14-1.32,9.75-.36,13.89,3.06,1.85,1.53,3.94,2.76,6.06,4.23ZM103.07,109.46c-10.57,10.57-21.17,21.16-31.93,31.92,2.43,2.42,5.05,4.9,7.51,7.53,1.11,1.18,1.73,1.11,2.85-.02,9.75-9.84,19.56-19.61,29.36-29.41.4-.4.76-.82,1.02-1.11-3.03-3.07-5.96-6.04-8.8-8.92ZM51.31,104.68c-.3-.53-.68-1.66-1.43-2.43-3.93-4.05-7.93-8.02-11.94-11.98-1.92-1.89-4.29-1.98-5.98-.32-1.69,1.65-1.57,4.16.34,6.12,1.52,1.57,3.09,3.09,4.64,4.64,2.48,2.48,4.95,4.98,7.46,7.43,1.28,1.25,2.85,1.51,4.47.82,1.57-.66,2.33-1.98,2.45-4.28ZM44.46,79.72c-2.33.11-3.64.84-4.31,2.43-.72,1.71-.39,3.28.92,4.6,4.06,4.08,8.11,8.16,12.21,12.2,1.79,1.76,4.27,1.76,5.86.13,1.6-1.64,1.58-4.09-.18-5.86-4-4.05-8.02-8.09-12.1-12.06-.77-.75-1.89-1.14-2.4-1.43ZM60.84,67.59c-.05.24-.1.48-.15.71,5.54,6.7,11.88,12.44,20.01,16.47-.11-1.27-.25-2.23-.28-3.2-.18-5.22-2-10.39-.37-15.9-.65.06-1.3-.07-1.66.19-1.98,1.42-4.23,1.7-6.55,1.71-3.66.03-7.33,0-11,0ZM112.73,48.05c-1.94.15-3.72.05-5.37.47-2.33.59-3.8,2.79-3.77,5,.02,1.51.62,2.92,2.03,3.28.99.26,2.44-.07,3.29-.68,2.49-1.77,3.47-4.46,3.81-8.07Z"/>
  </g>
</svg>