<svg width="22" height="22" viewBox="0 0 22 22" fill="none" xmlns="http://www.w3.org/2000/svg">
<g clip-path="url(#clip0_156_65)">
<path d="M19.9375 2.75H2.0625C1.51549 2.75 0.990886 2.9673 0.604092 3.35409C0.217298 3.74089 0 4.26549 0 4.8125L0 17.1875C0 17.7345 0.217298 18.2591 0.604092 18.6459C0.990886 19.0327 1.51549 19.25 2.0625 19.25H19.9375C20.4845 19.25 21.0091 19.0327 21.3959 18.6459C21.7827 18.2591 22 17.7345 22 17.1875V4.8125C22 4.26549 21.7827 3.74089 21.3959 3.35409C21.0091 2.9673 20.4845 2.75 19.9375 2.75ZM17.5093 4.125L11 9.26475L4.49075 4.125H17.5093ZM2.75 17.875V6.38825L11 12.7339L19.25 6.38687V17.875H2.75Z" fill="#333033"/>
</g>
<defs>
<clipPath id="clip0_156_65">
<rect width="22" height="22" fill="white"/>
</clipPath>
</defs>
</svg>
