<svg width="1440" height="765" viewBox="0 0 1440 765" fill="none" xmlns="http://www.w3.org/2000/svg">
<mask id="mask0_154_46" style="mask-type:alpha" maskUnits="userSpaceOnUse" x="0" y="0" width="1440" height="765">
<rect width="1440" height="765" fill="#DCE8C0"/>
</mask>
<g mask="url(#mask0_154_46)">
<rect width="1440" height="765" fill="#DCE8C0"/>
<path d="M119 88.0002C119 88.0002 593.5 -272.5 1387 34.9999C2180.5 342.5 1686.5 873 913 213C139.5 -447 516.5 792 75 375C-366.5 -42 119 88.0002 119 88.0002Z" fill="url(#paint0_linear_154_46)" fill-opacity="0.4"/>
<path d="M1751 136.5C1751 251.099 893 464 1339.5 701C1786 938 -565.5 390.5 -99 496.5C367.5 602.5 659.922 -13.5 787.5 -13.5C915.078 -13.5 1751 21.9007 1751 136.5Z" fill="url(#paint1_linear_154_46)" fill-opacity="0.5"/>
<path d="M807.873 -272C807.873 -272 708.373 -24.1885 868.873 239.311C1029.37 502.811 1343.22 -262.189 1540.87 -21C1738.52 220.189 1405.65 589.123 1286.22 502.812C1166.8 416.5 1526.8 870 1320.3 794.312C1113.8 718.623 999.222 794.312 999.222 794.312H727.722C727.722 794.312 857.572 323 628.222 456.5C398.873 590 550.448 1224.19 -38.1271 655C-626.702 85.8115 425.722 239.311 425.722 239.311L628.222 89.3114L807.873 -272Z" fill="url(#paint2_linear_154_46)" fill-opacity="0.3"/>
</g>
<defs>
<linearGradient id="paint0_linear_154_46" x1="119" y1="161.5" x2="1311" y2="161.5" gradientUnits="userSpaceOnUse">
<stop stop-color="#D9D9D9"/>
<stop offset="1" stop-color="#C1D124"/>
</linearGradient>
<linearGradient id="paint1_linear_154_46" x1="720" y1="383" x2="720" y2="798" gradientUnits="userSpaceOnUse">
<stop stop-color="#D9D9D9"/>
<stop offset="0.065" stop-color="#DDE6A1"/>
<stop offset="1" stop-color="#DCE8C0"/>
</linearGradient>
<linearGradient id="paint2_linear_154_46" x1="775.373" y1="257" x2="775.373" y2="814" gradientUnits="userSpaceOnUse">
<stop stop-color="#DDE6A1"/>
<stop offset="1" stop-color="#C1D124"/>
</linearGradient>
</defs>
</svg>
