<svg width="30" height="30" viewBox="0 0 30 30" fill="none" xmlns="http://www.w3.org/2000/svg">
<path fill-rule="evenodd" clip-rule="evenodd" d="M15.4838 3.82251C9.31446 3.82251 4.3064 8.83057 4.3064 14.9999C4.3064 17.1774 4.91124 19.258 6.09672 21.0725L4.40317 24.8225C4.25801 25.1612 4.3064 25.5725 4.54833 25.8628C4.74188 26.0806 5.00801 26.2015 5.29833 26.2015C5.39511 26.2015 5.46769 26.2015 5.56446 26.1773L10.258 24.8951C11.879 25.7661 13.6935 26.2257 15.5322 26.2257C21.7016 26.2257 26.7096 21.2177 26.7096 15.0483C26.6612 8.83057 21.6532 3.82251 15.4838 3.82251ZM15.4838 24.2419C13.8387 24.2419 12.2419 23.8064 10.8387 22.9838C10.6935 22.887 10.5241 22.8386 10.3548 22.8386C10.258 22.8386 10.1854 22.8386 10.0887 22.8628L7.01607 23.7096L8.08059 21.3628C8.22575 21.0483 8.17736 20.6612 7.98382 20.3951C6.84672 18.8225 6.24188 16.9596 6.24188 14.9999C6.24188 9.91928 10.4032 5.75799 15.4838 5.75799C20.5645 5.75799 24.7257 9.89509 24.7257 14.9999C24.7257 20.0806 20.5887 24.2419 15.4838 24.2419Z" fill="#333033"/>
<path fill-rule="evenodd" clip-rule="evenodd" d="M19.7902 16.6693C19.3305 16.379 18.7015 16.0645 18.1693 16.3064C17.758 16.4758 17.4676 17.1532 17.2015 17.4919C17.0564 17.6613 16.887 17.6855 16.6693 17.6129C15.0725 16.9838 13.8628 15.9193 12.9918 14.4677C12.8467 14.25 12.8709 14.0564 13.0402 13.8387C13.3064 13.5242 13.6451 13.1613 13.7176 12.75C13.7902 12.3387 13.5967 11.8306 13.4273 11.4677C13.2096 10.9838 12.9676 10.3064 12.4838 10.0403C12.0483 9.79836 11.4676 9.91933 11.0805 10.258C10.4031 10.8145 10.0644 11.6855 10.0886 12.5322C10.0886 12.7742 10.1128 13.0161 10.1854 13.258C10.3305 13.8145 10.5725 14.3467 10.887 14.8548C11.1047 15.2419 11.3467 15.6048 11.6128 15.9435C12.4596 17.1048 13.5241 18.0967 14.7338 18.8467C15.3386 19.2097 16.016 19.5484 16.6935 19.7661C17.4676 20.008 18.1451 20.2742 18.9676 20.129C19.8386 19.9597 20.6854 19.4274 21.0241 18.6048C21.1209 18.3629 21.1693 18.0726 21.1209 17.8306C20.9515 17.25 20.2257 16.9355 19.7902 16.6693Z" fill="#333033"/>
</svg>
