<?xml version="1.0" encoding="UTF-8"?>
<svg id="Layer_2" data-name="Layer 2" xmlns="http://www.w3.org/2000/svg" viewBox="0 0 286.29 115.18">
  <defs>
    <style>
      .cls-1 {
        fill: #00000;
        stroke-width: 0px;
      }
    </style>
  </defs>
  <g id="Capa_1" data-name="Capa 1">
    <g>
      <path class="cls-1" d="M283.56,53.99c-.8,8.9-2.61,17.74-5.65,26.53-2.51,7.25-6.8,13.48-15.21,13.65-8.18.16-10.98-6.97-13.22-13.09-8.53-23.22-16.71-46.57-24.77-69.94-3.9-11.32-9.78-13.75-20.64-8.51,0,2.8.76,5.51-.12,7.54-9.43,21.97-19.07,43.84-28.75,65.71-1.07,2.42-2.73,4.56-3.86,6.41.76-20.62,1.36-41.19,2.42-61.72.29-5.53,1.95-10.98,2.98-16.5h-17.26c1.29,3.29,3.45,6.33,3.47,9.39.1,14.57.31,29.19-.86,43.7-.99,12.37-2.9,24.81-6.06,36.77-3.19,12.17-14.61,17.53-26.02,13.75-3.76-1.25-7.54-2.98-5.49-8.26,1.97-.29,3.66-.55,5.34-.8-.12-.66-.21-1.32-.33-1.99-1.97.33-4.58.02-5.71,1.17-1.3,1.32-2.08,4.09-1.71,5.96,1.11,5.53,7.87,10.11,14.9,10.3,12.58.35,21.83-5.67,26.88-16.77,3.1-6.8,7.95-9.64,14.47-11.12,2.2-.51,4.4-.97,6.39-1.42-.72-3.41-2.26-6.29-1.71-8.67,3.23-13.89,5.61-15.62,19.81-15.91,1.87-.04,3.74-.18,5.63-.18,19.03,0,13.93-3.53,21.68,14.14,1.93,4.38,3.53,9.04,6.27,12.85,3.47,4.81,7.3,9.8,12.11,13.11,12.62,8.69,29.25,1.6,32.66-13.38.88-3.86,1.3-7.79,2.12-11.67,1.46-6.89,2.43-13.73,2.98-20.55-.92-.06-1.83-.23-2.71-.53h-.02ZM193.41,52.55c5.61-13.42,11.06-26.51,16.52-39.57l1.66-.08c4.07,12.99,8.14,25.98,12.43,39.65h-30.6Z"/>
      <path class="cls-1" d="M94.94,14.56c-1.36,23-2.47,46-.14,70.05-3.51.23-8.73.6-12.72.88,1.21-6.15,3.16-12.13,3.41-18.19.74-18.5.95-37.04,1.03-55.56,0-2.94-1.67-5.9-2.63-9.06,4.23-.35,9.17-1.38,13.96-.95,2.59.23,5.67,2.47,7.3,4.69,10.34,14.08,20.33,28.42,30.44,42.67.93,1.32,1.91,2.65,3.02,4.19,3.66-13.07,2.03-44.54-2.9-50.13h14.59c-.49,4.75-1.27,9.37-1.4,14-.55,18.31-.84,36.63-1.3,54.94-.23,8.96-4.11,15.5-13.85,18.93.88-1.97,1.87-3.23,1.97-4.58.41-5.84,2.98-13.24.39-17.28-12.21-18.99-25.86-37.04-38.99-55.45-.72.27-1.44.55-2.16.82l-.02.02Z"/>
      <path class="cls-1" d="M5.49,79.37c.41,4.15.86,6.62.88,9.1.08,9.23,4.34,15.27,11.86,16.55,8.26,1.42,14.94-2.94,17.43-12.31,1.36-5.16,1.93-10.65,1.99-16.01.25-20.39.08-40.8.23-61.19.04-5.18-.08-10.03-5.39-13.65h22.94c-.74,6.54-2.08,13.48-2.24,20.45-.43,19.98.04,39.98-.76,59.93-.27,6.84-2.22,14.06-5.28,20.2-4.67,9.37-13.42,13.24-23.9,12.7-9.76-.51-17-5.08-21.35-13.87-3.33-6.74-2.38-15.35,3.56-21.89h.02Z"/>
      <path class="cls-1" d="M58.62,95.4c6.86-8.32,7.15-18.39,7.4-28.24.49-18.7.58-37.39.64-56.09,0-2.53-1.17-5.06-1.83-7.71h12.33c-.72,6.82-1.79,13.48-2.04,20.18-.62,16.18-.72,32.41-1.3,48.59-.39,10.63-4.87,18.89-15.19,23.27Z"/>
    </g>
  </g>
</svg>