<svg width="1439" height="835" viewBox="0 0 1439 835" fill="none" xmlns="http://www.w3.org/2000/svg">
<g clip-path="url(#clip0_89_11)">
<rect width="1439" height="835" fill="#DDE6A1"/>
<path d="M809.411 22.8559C921.568 -39.8797 1455.14 -173.291 1444.89 22.8559C1434.64 219.003 1311.02 267.415 1388.46 367.009C1465.9 466.603 3003.09 533.238 1444.89 820.889C-113.305 1108.54 1570.46 634.02 809.411 820.889C48.3606 1007.76 313.745 265.043 809.411 22.8559Z" fill="url(#paint0_linear_89_11)"/>
<path d="M452.586 664.404C670.805 712.702 567.236 146.599 840.671 74.9958C945.238 47.6132 804.486 242.744 1012.49 158.87C1220.5 74.9958 1373.33 736.87 956.501 480.37C539.676 223.87 804.215 798.97 713.268 837.835C599.583 886.416 239.526 752.442 -46.6284 534.454C-332.783 316.465 189.889 162.271 475.118 -6.58148C760.346 -175.434 670.501 133.37 539.676 400.488C479.087 524.198 234.367 616.106 452.586 664.404Z" fill="url(#paint1_linear_89_11)" fill-opacity="0.5"/>
<path d="M1437.98 204.435C1450.38 0.834656 1388.82 18.9347 1356.48 53.4347C1225.48 119.435 979.182 275.935 1041.98 373.935C1120.48 496.435 1164.98 172.935 1356.48 373.935C1547.98 574.935 765.482 691.435 850.482 769.935C935.482 848.435 1085.98 672.435 1208.98 769.935C1331.98 867.435 1591.98 741.935 1513.48 609.935L1511.81 607.126C1434.8 477.652 1422.59 457.118 1437.98 204.435Z" fill="url(#paint2_linear_89_11)" fill-opacity="0.7"/>
</g>
<defs>
<linearGradient id="paint0_linear_89_11" x1="1083.94" y1="562.017" x2="1083.94" y2="706.523" gradientUnits="userSpaceOnUse">
<stop stop-color="#C1D124"/>
<stop offset="1" stop-color="#DDE6A1"/>
</linearGradient>
<linearGradient id="paint1_linear_89_11" x1="686.501" y1="703.37" x2="277.501" y2="106.37" gradientUnits="userSpaceOnUse">
<stop stop-color="#DDE6A1"/>
<stop offset="0.448286" stop-color="#C1D124"/>
<stop offset="0.882847" stop-color="#E1E179"/>
</linearGradient>
<linearGradient id="paint2_linear_89_11" x1="1185.99" y1="32" x2="1185.99" y2="804.631" gradientUnits="userSpaceOnUse">
<stop stop-color="#C1D124"/>
<stop offset="1" stop-color="#DDE6A1"/>
</linearGradient>
<clipPath id="clip0_89_11">
<rect width="1439" height="835" fill="white"/>
</clipPath>
</defs>
</svg>
