<svg width="28" height="28" viewBox="0 0 28 28" fill="none" xmlns="http://www.w3.org/2000/svg">
<path d="M19.6904 7.58699C18.9904 7.58699 18.4259 8.1515 18.4259 8.8515C18.4259 9.5515 18.9904 10.116 19.6904 10.116C20.3904 10.116 20.9549 9.5515 20.9549 8.8515C20.9549 8.1515 20.3904 7.58699 19.6904 7.58699ZM14.0453 9.21279C11.1098 9.21279 8.71622 11.6063 8.71622 14.5418C8.71622 17.4773 11.1098 19.8709 14.0453 19.8709C16.9807 19.8709 19.3743 17.4773 19.3743 14.5418C19.3743 11.6063 16.9807 9.21279 14.0453 9.21279ZM14.0453 17.9741C12.1485 17.9741 10.6356 16.4386 10.6356 14.5644C10.6356 12.6676 12.1711 11.1547 14.0453 11.1547C15.942 11.1547 17.4549 12.6902 17.4549 14.5644C17.4549 16.4386 15.9194 17.9741 14.0453 17.9741ZM24.8162 10.116C24.8162 6.5257 21.9033 3.61279 18.313 3.61279H9.70977C6.11945 3.61279 3.20654 6.5257 3.20654 10.116V18.7192C3.20654 22.3096 6.11945 25.2225 9.70977 25.2225H18.2904C21.8807 25.2225 24.7936 22.3096 24.7936 18.7192V10.116H24.8162ZM22.7614 18.6967C22.7614 21.158 20.7517 23.1676 18.2904 23.1676H9.70977C7.24848 23.1676 5.2388 21.158 5.2388 18.6967V10.116C5.2388 7.63215 7.2259 5.64505 9.70977 5.64505H18.2904C20.7517 5.64505 22.7614 7.65473 22.7614 10.116V18.6967Z" fill="#DCE8C0"/>
</svg>
