<svg width="219" height="17" viewBox="0 0 219 17" fill="none" xmlns="http://www.w3.org/2000/svg">
<path d="M1.00474 4.894C0.846072 4.71267 0.766738 4.486 0.766738 4.214C0.766738 3.942 0.846072 3.721 1.00474 3.551C1.16341 3.36967 1.39007 3.279 1.68474 3.279C1.99074 3.279 2.22307 3.36967 2.38174 3.551C2.55174 3.721 2.63674 3.942 2.63674 4.214C2.63674 4.486 2.55174 4.71267 2.38174 4.894C2.22307 5.064 1.99074 5.149 1.68474 5.149C1.39007 5.149 1.16341 5.064 1.00474 4.894ZM0.970738 14.737L1.14074 6.577H2.26274L2.43274 14.737H0.970738ZM5.31477 12V0.44H11.6048V1.664H6.67477V5.608H10.7038V6.832H6.67477V10.776H11.9448V12H5.31477ZM12.9268 3.5H14.4568L16.3948 6.509L18.3498 3.5H19.8798L17.1768 7.699L19.9648 12H18.4348L16.3438 8.787L14.2698 12H12.7398L15.5788 7.614L12.9268 3.5ZM25.4485 3.262C26.4231 3.262 27.2221 3.63033 27.8455 4.367C28.4688 5.10367 28.7805 6.169 28.7805 7.563C28.7805 8.94567 28.3838 10.0733 27.5905 10.946C26.8085 11.8073 25.8111 12.238 24.5985 12.238C23.9978 12.238 23.3915 12.1303 22.7795 11.915V15.825H21.4875V5.2L21.3175 3.5L22.4395 3.415L22.7285 4.979C23.3631 3.83433 24.2698 3.262 25.4485 3.262ZM27.4885 7.597C27.4885 6.56567 27.2731 5.778 26.8425 5.234C26.4118 4.69 25.8621 4.418 25.1935 4.418C24.5361 4.418 23.9751 4.741 23.5105 5.387C23.0458 6.033 22.8021 6.95667 22.7795 8.158V10.606C23.3688 10.9233 23.9751 11.082 24.5985 11.082C25.4371 11.082 26.1285 10.759 26.6725 10.113C27.2165 9.45567 27.4885 8.617 27.4885 7.597ZM30.9132 0.0999992H32.2052V10.13C32.2052 10.7533 32.4602 11.065 32.9702 11.065C33.2989 11.065 33.6219 10.9517 33.9392 10.725L34.4492 11.643C33.8259 12.0397 33.2365 12.238 32.6812 12.238C32.1259 12.238 31.6895 12.085 31.3722 11.779C31.0662 11.473 30.9132 10.9233 30.9132 10.13V0.0999992ZM35.889 10.997C35.2657 10.1583 34.954 9.076 34.954 7.75C34.954 6.424 35.2657 5.34733 35.889 4.52C36.5123 3.68133 37.4417 3.262 38.677 3.262C39.9237 3.262 40.8643 3.68133 41.499 4.52C42.1337 5.34733 42.451 6.424 42.451 7.75C42.451 9.076 42.1337 10.1583 41.499 10.997C40.8643 11.8243 39.9237 12.238 38.677 12.238C37.4417 12.238 36.5123 11.8243 35.889 10.997ZM36.858 5.353C36.45 5.965 36.246 6.764 36.246 7.75C36.246 8.736 36.45 9.54067 36.858 10.164C37.266 10.776 37.878 11.082 38.694 11.082C39.51 11.082 40.122 10.776 40.53 10.164C40.9493 9.54067 41.159 8.736 41.159 7.75C41.159 6.764 40.9493 5.965 40.53 5.353C40.122 4.72967 39.51 4.418 38.694 4.418C37.878 4.418 37.266 4.72967 36.858 5.353ZM46.0383 12H44.7463V5.2L44.5763 3.5L45.6983 3.415L46.0383 5.455C46.3783 4.75233 46.8089 4.21967 47.3303 3.857C47.8516 3.49433 48.4183 3.313 49.0303 3.313L49.1153 4.605C47.1206 4.76367 46.0949 6.288 46.0383 9.178V12ZM53.3748 12.238C52.4002 12.238 51.6012 11.8697 50.9778 11.133C50.3545 10.3963 50.0428 9.33667 50.0428 7.954C50.0428 6.56 50.4338 5.43233 51.2158 4.571C52.0092 3.69833 52.9895 3.262 54.1568 3.262C55.3355 3.262 56.3952 3.59067 57.3358 4.248V10.3L57.5058 12L56.3838 12.085L56.0948 10.555C55.4602 11.677 54.5535 12.238 53.3748 12.238ZM51.3348 7.92C51.3348 8.94 51.5502 9.722 51.9808 10.266C52.4115 10.81 52.9612 11.082 53.6298 11.082C54.3098 11.082 54.8822 10.7477 55.3468 10.079C55.8115 9.399 56.0438 8.44133 56.0438 7.206V4.843C55.4772 4.55967 54.8708 4.418 54.2248 4.418C53.3862 4.418 52.6948 4.74667 52.1508 5.404C51.6068 6.05 51.3348 6.88867 51.3348 7.92ZM67.4075 12.238C66.3875 12.238 65.5432 11.881 64.8745 11.167C64.2172 10.453 63.8885 9.40467 63.8885 8.022C63.8885 6.63933 64.2795 5.50033 65.0615 4.605C65.8435 3.70967 66.8579 3.262 68.1045 3.262C68.8979 3.262 69.5382 3.50567 70.0255 3.993C70.5129 4.469 70.7565 5.06967 70.7565 5.795C70.7565 6.509 70.3825 7.16633 69.6345 7.767C68.8979 8.36767 67.8212 8.668 66.4045 8.668C66.0305 8.668 65.6339 8.651 65.2145 8.617C65.2939 9.42167 65.5375 10.0337 65.9455 10.453C66.3649 10.8723 66.8692 11.082 67.4585 11.082C68.4445 11.082 69.2662 10.776 69.9235 10.164L70.5355 10.997C69.6742 11.8243 68.6315 12.238 67.4075 12.238ZM68.0535 4.418C67.2715 4.418 66.6199 4.69567 66.0985 5.251C65.5885 5.80633 65.2882 6.543 65.1975 7.461C65.5715 7.51767 65.9852 7.546 66.4385 7.546C67.4132 7.546 68.1612 7.36467 68.6825 7.002C69.2039 6.63933 69.4645 6.22 69.4645 5.744C69.4645 5.39267 69.3342 5.08667 69.0735 4.826C68.8242 4.554 68.4842 4.418 68.0535 4.418ZM72.6329 0.0999992H73.9249V10.13C73.9249 10.7533 74.1799 11.065 74.6899 11.065C75.0186 11.065 75.3416 10.9517 75.6589 10.725L76.1689 11.643C75.5456 12.0397 74.9562 12.238 74.4009 12.238C73.8456 12.238 73.4092 12.085 73.0919 11.779C72.7859 11.473 72.6329 10.9233 72.6329 10.13V0.0999992ZM83.7457 11.065C84.2444 11.065 84.6637 10.946 85.0037 10.708C85.3437 10.47 85.5137 10.1753 85.5137 9.824C85.5137 9.46133 85.4174 9.178 85.2247 8.974C85.0321 8.75867 84.8224 8.60567 84.5957 8.515C84.3804 8.42433 84.0687 8.32233 83.6607 8.209C83.2527 8.08433 82.9411 7.98233 82.7257 7.903C82.5104 7.81233 82.2554 7.67633 81.9607 7.495C81.4054 7.155 81.1277 6.577 81.1277 5.761C81.1277 4.93367 81.4054 4.31033 81.9607 3.891C82.5161 3.47167 83.1677 3.262 83.9157 3.262C84.3804 3.262 84.8451 3.32433 85.3097 3.449C85.7857 3.57367 86.1427 3.704 86.3807 3.84L85.9047 4.877C85.3607 4.58233 84.6977 4.435 83.9157 4.435C83.5191 4.435 83.1677 4.54267 82.8617 4.758C82.5671 4.962 82.4197 5.22833 82.4197 5.557C82.4197 5.87433 82.5104 6.12367 82.6917 6.305C82.8731 6.48633 83.0601 6.61667 83.2527 6.696C83.4454 6.77533 83.7401 6.87167 84.1367 6.985C84.5334 7.09833 84.8507 7.206 85.0887 7.308C85.3381 7.39867 85.6157 7.546 85.9217 7.75C86.5111 8.14667 86.8057 8.77567 86.8057 9.637C86.8057 10.487 86.5111 11.133 85.9217 11.575C85.3437 12.017 84.6184 12.238 83.7457 12.238C82.5671 12.238 81.5697 11.8583 80.7537 11.099L81.4507 10.164C82.0741 10.7647 82.8391 11.065 83.7457 11.065ZM91.492 12.238C90.5174 12.238 89.7184 11.8697 89.095 11.133C88.4717 10.3963 88.16 9.33667 88.16 7.954C88.16 6.56 88.551 5.43233 89.333 4.571C90.1264 3.69833 91.1067 3.262 92.274 3.262C93.4527 3.262 94.5124 3.59067 95.453 4.248V10.3L95.623 12L94.501 12.085L94.212 10.555C93.5774 11.677 92.6707 12.238 91.492 12.238ZM89.452 7.92C89.452 8.94 89.6674 9.722 90.098 10.266C90.5287 10.81 91.0784 11.082 91.747 11.082C92.427 11.082 92.9994 10.7477 93.464 10.079C93.9287 9.399 94.161 8.44133 94.161 7.206V4.843C93.5944 4.55967 92.988 4.418 92.342 4.418C91.5034 4.418 90.812 4.74667 90.268 5.404C89.724 6.05 89.452 6.88867 89.452 7.92ZM99.5577 0.0999992V4.894C100.181 3.806 101.099 3.262 102.312 3.262C103.264 3.262 104.04 3.63033 104.641 4.367C105.253 5.10367 105.559 6.169 105.559 7.563C105.559 8.94567 105.162 10.0733 104.369 10.946C103.587 11.8073 102.629 12.238 101.496 12.238C100.362 12.238 99.5407 11.9207 99.0307 11.286C98.5207 10.64 98.2657 9.76733 98.2657 8.668V0.0999992H99.5577ZM104.267 7.58C104.267 6.54867 104.074 5.76667 103.689 5.234C103.303 4.69 102.759 4.418 102.057 4.418C101.365 4.418 100.782 4.72967 100.306 5.353C99.8297 5.97633 99.5804 6.934 99.5577 8.226V8.668C99.5577 9.382 99.7051 9.96567 99.9997 10.419C100.306 10.861 100.765 11.082 101.377 11.082C102.215 11.082 102.907 10.759 103.451 10.113C103.995 9.45567 104.267 8.61133 104.267 7.58ZM108.189 10.997C107.565 10.1583 107.254 9.076 107.254 7.75C107.254 6.424 107.565 5.34733 108.189 4.52C108.812 3.68133 109.741 3.262 110.977 3.262C112.223 3.262 113.164 3.68133 113.799 4.52C114.433 5.34733 114.751 6.424 114.751 7.75C114.751 9.076 114.433 10.1583 113.799 10.997C113.164 11.8243 112.223 12.238 110.977 12.238C109.741 12.238 108.812 11.8243 108.189 10.997ZM109.158 5.353C108.75 5.965 108.546 6.764 108.546 7.75C108.546 8.736 108.75 9.54067 109.158 10.164C109.566 10.776 110.178 11.082 110.994 11.082C111.81 11.082 112.422 10.776 112.83 10.164C113.249 9.54067 113.459 8.736 113.459 7.75C113.459 6.764 113.249 5.965 112.83 5.353C112.422 4.72967 111.81 4.418 110.994 4.418C110.178 4.418 109.566 4.72967 109.158 5.353ZM118.338 12H117.046V5.2L116.876 3.5L117.998 3.415L118.338 5.455C118.678 4.75233 119.109 4.21967 119.63 3.857C120.151 3.49433 120.718 3.313 121.33 3.313L121.415 4.605C119.42 4.76367 118.395 6.288 118.338 9.178V12ZM129.925 12.238C128.95 12.238 128.151 11.8697 127.528 11.133C126.904 10.3963 126.593 9.33667 126.593 7.954C126.593 6.56 126.984 5.43233 127.766 4.571C128.559 3.69833 129.562 3.262 130.775 3.262C131.375 3.262 131.982 3.36967 132.594 3.585V0.0999992H133.886V10.3L134.056 12L132.934 12.085L132.645 10.555C132.01 11.677 131.103 12.238 129.925 12.238ZM127.885 7.92C127.885 8.94 128.1 9.722 128.531 10.266C128.961 10.81 129.511 11.082 130.18 11.082C130.86 11.082 131.432 10.7477 131.897 10.079C132.361 9.399 132.594 8.44133 132.594 7.206V4.843C132.027 4.55967 131.421 4.418 130.775 4.418C129.936 4.418 129.245 4.74667 128.701 5.404C128.157 6.05 127.885 6.88867 127.885 7.92ZM139.707 12.238C138.687 12.238 137.843 11.881 137.174 11.167C136.517 10.453 136.188 9.40467 136.188 8.022C136.188 6.63933 136.579 5.50033 137.361 4.605C138.143 3.70967 139.158 3.262 140.404 3.262C141.198 3.262 141.838 3.50567 142.325 3.993C142.813 4.469 143.056 5.06967 143.056 5.795C143.056 6.509 142.682 7.16633 141.934 7.767C141.198 8.36767 140.121 8.668 138.704 8.668C138.33 8.668 137.934 8.651 137.514 8.617C137.594 9.42167 137.837 10.0337 138.245 10.453C138.665 10.8723 139.169 11.082 139.758 11.082C140.744 11.082 141.566 10.776 142.223 10.164L142.835 10.997C141.974 11.8243 140.931 12.238 139.707 12.238ZM140.353 4.418C139.571 4.418 138.92 4.69567 138.398 5.251C137.888 5.80633 137.588 6.543 137.497 7.461C137.871 7.51767 138.285 7.546 138.738 7.546C139.713 7.546 140.461 7.36467 140.982 7.002C141.504 6.63933 141.764 6.22 141.764 5.744C141.764 5.39267 141.634 5.08667 141.373 4.826C141.124 4.554 140.784 4.418 140.353 4.418ZM144.933 0.0999992H146.225V10.13C146.225 10.7533 146.48 11.065 146.99 11.065C147.318 11.065 147.641 10.9517 147.959 10.725L148.469 11.643C147.845 12.0397 147.256 12.238 146.701 12.238C146.145 12.238 145.709 12.085 145.392 11.779C145.086 11.473 144.933 10.9233 144.933 10.13V0.0999992ZM155.281 11.048C156.425 11.048 156.998 10.2773 156.998 8.736V0.44H158.358V8.736C158.358 9.858 158.086 10.7307 157.542 11.354C157.009 11.966 156.318 12.272 155.468 12.272C154.232 12.272 153.201 11.8583 152.374 11.031L153.122 10.079C153.802 10.725 154.521 11.048 155.281 11.048ZM163.912 12.238C162.892 12.238 162.048 11.881 161.379 11.167C160.722 10.453 160.393 9.40467 160.393 8.022C160.393 6.63933 160.784 5.50033 161.566 4.605C162.348 3.70967 163.363 3.262 164.609 3.262C165.403 3.262 166.043 3.50567 166.53 3.993C167.018 4.469 167.261 5.06967 167.261 5.795C167.261 6.509 166.887 7.16633 166.139 7.767C165.403 8.36767 164.326 8.668 162.909 8.668C162.535 8.668 162.139 8.651 161.719 8.617C161.799 9.42167 162.042 10.0337 162.45 10.453C162.87 10.8723 163.374 11.082 163.963 11.082C164.949 11.082 165.771 10.776 166.428 10.164L167.04 10.997C166.179 11.8243 165.136 12.238 163.912 12.238ZM164.558 4.418C163.776 4.418 163.125 4.69567 162.603 5.251C162.093 5.80633 161.793 6.543 161.702 7.461C162.076 7.51767 162.49 7.546 162.943 7.546C163.918 7.546 164.666 7.36467 165.187 7.002C165.709 6.63933 165.969 6.22 165.969 5.744C165.969 5.39267 165.839 5.08667 165.578 4.826C165.329 4.554 164.989 4.418 164.558 4.418ZM173.473 3.262C175.331 3.262 176.261 4.452 176.261 6.832V12H174.969V6.832C174.969 5.22267 174.396 4.418 173.252 4.418C172.594 4.418 171.994 4.758 171.45 5.438C170.917 6.118 170.634 7.053 170.6 8.243V12H169.308V5.2L169.138 3.5L170.26 3.415L170.583 5.166C170.934 4.554 171.37 4.08367 171.892 3.755C172.413 3.42633 172.94 3.262 173.473 3.262ZM185.6 11.422C185.6 12.782 185.203 13.8927 184.41 14.754C183.628 15.6267 182.647 16.063 181.469 16.063C180.301 16.063 179.247 15.7343 178.307 15.077L178.953 14.074C179.225 14.3007 179.587 14.4877 180.041 14.635C180.494 14.7823 180.953 14.856 181.418 14.856C182.256 14.856 182.948 14.533 183.492 13.887C184.036 13.241 184.308 12.4137 184.308 11.405V10.606C183.673 11.694 182.783 12.238 181.639 12.238C180.664 12.238 179.865 11.8697 179.242 11.133C178.618 10.3963 178.307 9.33667 178.307 7.954C178.307 6.56 178.698 5.43233 179.48 4.571C180.273 3.69833 181.253 3.262 182.421 3.262C183.599 3.262 184.659 3.59067 185.6 4.248V11.422ZM179.599 7.92C179.599 8.94 179.814 9.722 180.245 10.266C180.675 10.81 181.225 11.082 181.894 11.082C182.574 11.082 183.146 10.742 183.611 10.062C184.075 9.382 184.308 8.413 184.308 7.155V4.843C183.741 4.55967 183.135 4.418 182.489 4.418C181.65 4.418 180.959 4.74667 180.415 5.404C179.871 6.05 179.599 6.88867 179.599 7.92ZM188.602 1.647C188.466 1.48833 188.398 1.29 188.398 1.052C188.398 0.813999 188.466 0.621333 188.602 0.473999C188.738 0.315333 188.936 0.235999 189.197 0.235999C189.457 0.235999 189.661 0.315333 189.809 0.473999C189.956 0.632666 190.03 0.825333 190.03 1.052C190.03 1.27867 189.956 1.47133 189.809 1.63C189.661 1.78867 189.457 1.868 189.197 1.868C188.936 1.868 188.738 1.79433 188.602 1.647ZM188.568 12V3.5H189.86V12H188.568ZM193.954 0.0999992V4.894C194.578 3.806 195.496 3.262 196.708 3.262C197.66 3.262 198.437 3.63033 199.037 4.367C199.649 5.10367 199.955 6.169 199.955 7.563C199.955 8.94567 199.559 10.0733 198.765 10.946C197.983 11.8073 197.026 12.238 195.892 12.238C194.759 12.238 193.937 11.9207 193.427 11.286C192.917 10.64 192.662 9.76733 192.662 8.668V0.0999992H193.954ZM198.663 7.58C198.663 6.54867 198.471 5.76667 198.085 5.234C197.7 4.69 197.156 4.418 196.453 4.418C195.762 4.418 195.178 4.72967 194.702 5.353C194.226 5.97633 193.977 6.934 193.954 8.226V8.668C193.954 9.382 194.102 9.96567 194.396 10.419C194.702 10.861 195.161 11.082 195.773 11.082C196.612 11.082 197.303 10.759 197.847 10.113C198.391 9.45567 198.663 8.61133 198.663 7.58ZM203.537 12H202.245V5.2L202.075 3.5L203.197 3.415L203.537 5.455C203.877 4.75233 204.308 4.21967 204.829 3.857C205.351 3.49433 205.917 3.313 206.529 3.313L206.614 4.605C204.62 4.76367 203.594 6.288 203.537 9.178V12ZM211.061 12.238C210.041 12.238 209.197 11.881 208.528 11.167C207.871 10.453 207.542 9.40467 207.542 8.022C207.542 6.63933 207.933 5.50033 208.715 4.605C209.497 3.70967 210.511 3.262 211.758 3.262C212.551 3.262 213.192 3.50567 213.679 3.993C214.166 4.469 214.41 5.06967 214.41 5.795C214.41 6.509 214.036 7.16633 213.288 7.767C212.551 8.36767 211.475 8.668 210.058 8.668C209.684 8.668 209.287 8.651 208.868 8.617C208.947 9.42167 209.191 10.0337 209.599 10.453C210.018 10.8723 210.523 11.082 211.112 11.082C212.098 11.082 212.92 10.776 213.577 10.164L214.189 10.997C213.328 11.8243 212.285 12.238 211.061 12.238ZM211.707 4.418C210.925 4.418 210.273 4.69567 209.752 5.251C209.242 5.80633 208.942 6.543 208.851 7.461C209.225 7.51767 209.639 7.546 210.092 7.546C211.067 7.546 211.815 7.36467 212.336 7.002C212.857 6.63933 213.118 6.22 213.118 5.744C213.118 5.39267 212.988 5.08667 212.727 4.826C212.478 4.554 212.138 4.418 211.707 4.418ZM216.745 8.94L216.575 0.78H218.037L217.867 8.94H216.745ZM216.609 11.983C216.451 11.8017 216.371 11.575 216.371 11.303C216.371 11.031 216.451 10.81 216.609 10.64C216.768 10.4587 216.995 10.368 217.289 10.368C217.595 10.368 217.828 10.4587 217.986 10.64C218.156 10.81 218.241 11.031 218.241 11.303C218.241 11.575 218.156 11.8017 217.986 11.983C217.828 12.153 217.595 12.238 217.289 12.238C216.995 12.238 216.768 12.153 216.609 11.983Z" fill="#263029"/>
</svg>
