<svg width="24" height="24" viewBox="0 0 24 24" fill="none" xmlns="http://www.w3.org/2000/svg">
<path d="M14.5005 6.99973C13.5689 6.98524 12.6696 7.34134 12.0005 7.98973C11.4861 7.50934 10.841 7.19189 10.1465 7.07734C9.45206 6.9628 8.73922 7.05627 8.09775 7.346C7.45629 7.63573 6.91488 8.10876 6.54169 8.70553C6.16849 9.30231 5.9802 9.99616 6.00051 10.6997C6.00051 13.9557 10.8745 17.4357 11.4305 17.8207C11.5979 17.9369 11.7968 17.9991 12.0005 17.9991C12.2042 17.9991 12.4031 17.9369 12.5705 17.8207C13.1265 17.4357 18.0005 13.9557 18.0005 10.6997C18.0253 9.74544 17.6708 8.82023 17.0148 8.12673C16.3588 7.43324 15.4547 7.02798 14.5005 6.99973ZM12.0005 15.7617C10.2595 14.4317 8.00051 12.2017 8.00051 10.6997C7.92451 8.69373 10.9135 8.29973 11.0005 10.4537V10.9997C11.0005 11.2649 11.1059 11.5193 11.2934 11.7068C11.4809 11.8944 11.7353 11.9997 12.0005 11.9997C12.2657 11.9997 12.5201 11.8944 12.7076 11.7068C12.8952 11.5193 13.0005 11.2649 13.0005 10.9997V10.4537C13.0875 8.30173 16.0765 8.69373 16.0005 10.6997C16.0005 12.1997 13.7415 14.4317 12.0005 15.7617ZM12.8365 0.0277282C11.1222 -0.0920639 9.40224 0.15773 7.79286 0.76021C6.18349 1.36269 4.72228 2.3038 3.5081 3.51988C2.29392 4.73596 1.35509 6.19863 0.755123 7.80894C0.155155 9.41926 -0.091954 11.1396 0.0305131 12.8537C0.470513 19.2077 6.08251 23.9997 13.0835 23.9997H19.0005C20.3261 23.9981 21.597 23.4708 22.5343 22.5335C23.4716 21.5962 23.9989 20.3253 24.0005 18.9997V12.3397C24.0376 9.25724 22.9073 6.27482 20.8366 3.99114C18.7658 1.70747 15.9079 0.291594 12.8365 0.0277282ZM22.0005 18.9997C22.0005 19.7954 21.6844 20.5584 21.1218 21.1211C20.5592 21.6837 19.7962 21.9997 19.0005 21.9997H13.0835C7.04951 21.9997 2.40051 18.0997 2.02551 12.7157C1.92285 11.2867 2.12844 9.85236 2.62836 8.50973C3.12828 7.1671 3.91086 5.94757 4.92311 4.93371C5.93537 3.91985 7.15365 3.13533 8.49548 2.63327C9.83731 2.13121 11.2714 1.92334 12.7005 2.02373C15.267 2.25076 17.6524 3.44064 19.3776 5.35428C21.1028 7.26793 22.0398 9.76355 22.0005 12.3397V18.9997Z" fill="#DCE8C0"/>
</svg>
