<svg width="181" height="74" viewBox="0 0 181 74" fill="none" xmlns="http://www.w3.org/2000/svg">
<g clip-path="url(#clip0_63_12)">
<path d="M179.274 34.6872C178.768 40.4052 177.624 46.0847 175.702 51.732C174.115 56.3899 171.403 60.3926 166.086 60.5018C160.914 60.6046 159.144 56.0237 157.728 52.0918C152.335 37.1736 147.163 22.1718 142.067 7.15726C139.602 -0.115532 135.884 -1.67674 129.018 1.68982C129.018 3.48874 129.499 5.22984 128.942 6.53406C122.981 20.6492 116.886 34.7001 110.766 48.7509C110.089 50.3057 109.04 51.6806 108.326 52.8692C108.806 39.6214 109.185 26.4057 109.856 13.2158C110.039 9.6629 111.088 6.16143 111.74 2.61498H100.827C101.643 4.72871 103.009 6.68183 103.021 8.6478C103.084 18.0086 103.217 27.4016 102.477 36.7239C101.852 44.6712 100.644 52.6636 98.6462 60.3476C96.6294 68.1665 89.4093 71.6101 82.1956 69.1816C79.8185 68.3785 77.4286 67.267 78.7247 63.8748C79.9702 63.6884 81.0387 63.5214 82.1008 63.3608C82.0249 62.9367 81.968 62.5127 81.8922 62.0823C80.6467 62.2943 78.9966 62.0951 78.2822 62.834C77.4603 63.682 76.9671 65.4617 77.201 66.6631C77.9028 70.216 82.1767 73.1585 86.6212 73.2806C94.5746 73.5054 100.423 69.6377 103.615 62.5063C105.575 58.1375 108.642 56.3128 112.764 55.362C114.155 55.0343 115.546 54.7388 116.804 54.4497C116.348 52.2588 115.375 50.4085 115.723 48.8794C117.765 39.9555 119.269 38.844 128.247 38.6577C129.429 38.632 130.611 38.5421 131.806 38.5421C143.838 38.5421 140.613 36.2741 145.513 47.6266C146.733 50.4406 147.745 53.4346 149.477 55.8824C151.671 58.9727 154.092 62.1786 157.133 64.3052C165.112 69.8883 175.626 65.3332 177.782 55.7089C178.338 53.229 178.604 50.7041 179.122 48.2113C180.045 43.7846 180.659 39.3901 181.006 35.0085C180.425 34.9699 179.849 34.8607 179.293 34.6679H179.28L179.274 34.6872ZM122.279 33.7621C125.826 25.1401 129.271 16.7301 132.723 8.33941L133.773 8.28801C136.346 16.6337 138.919 24.9795 141.631 33.7621H122.285H122.279Z" fill="#263029"/>
<path d="M60.0235 9.35442C59.1637 24.1313 58.4619 38.9082 59.935 54.3596C57.7159 54.5074 54.4156 54.7451 51.8931 54.925C52.6581 50.9738 53.8909 47.1318 54.049 43.2384C54.5168 31.3527 54.6496 19.4412 54.7001 7.54265C54.7001 5.65378 53.6443 3.75206 53.0374 1.72185C55.7117 1.49698 58.8349 0.835236 61.8633 1.1115C63.5007 1.25927 65.448 2.69841 66.4785 4.1247C73.0157 13.1707 79.3317 22.3838 85.7235 31.539C86.3115 32.3871 86.931 33.2416 87.6328 34.231C89.9468 25.8338 88.9162 5.61523 85.7994 2.02381H95.0235C94.7137 5.07555 94.2206 8.04378 94.1384 11.0184C93.7907 22.7821 93.6073 34.5522 93.3165 46.3159C93.1711 52.0724 90.7181 56.2742 84.5602 58.4779C85.1165 57.2122 85.7425 56.4027 85.8057 55.5354C86.0649 51.7833 87.6897 47.029 86.0522 44.4334C78.3328 32.2329 69.7029 20.6362 61.4017 8.80832C60.9465 8.98179 60.4913 9.16168 60.0361 9.33515L60.0235 9.348V9.35442Z" fill="#263029"/>
<path d="M3.4709 50.9931C3.73011 53.6594 4.01462 55.2463 4.02726 56.8396C4.07784 62.7696 6.77112 66.6502 11.5255 67.4725C16.7476 68.3848 20.9709 65.5837 22.5452 59.5637C23.405 56.2485 23.7654 52.7214 23.8033 49.2777C23.9613 36.1777 23.8539 23.0648 23.9487 9.96482C23.974 6.63681 23.8981 3.52082 20.541 1.19507H35.0443C34.5764 5.39684 33.7292 9.8556 33.6281 14.3336C33.3562 27.1702 33.6534 40.0197 33.1476 52.837C32.9769 57.2315 31.7441 61.8702 29.8094 65.815C26.8569 71.8349 21.325 74.3213 14.6992 73.9744C8.52871 73.6467 3.95139 70.7106 1.20121 65.0633C-0.904103 60.733 -0.303489 55.2013 3.45193 50.9995H3.46458L3.4709 50.9931Z" fill="#263029"/>
<path d="M37.061 61.2919C41.3981 55.9465 41.5814 49.4768 41.7395 43.1484C42.0493 31.1342 42.1062 19.1264 42.1441 7.11216C42.1441 5.4867 41.4044 3.86124 40.9872 2.15869H48.7825C48.3273 6.54036 47.6508 10.8192 47.4928 15.1238C47.1008 25.519 47.0376 35.9463 46.6709 46.3415C46.4243 53.171 43.5919 58.4778 37.0674 61.2919H37.061Z" fill="#263029"/>
</g>
<defs>
<clipPath id="clip0_63_12">
<rect width="181" height="74" fill="white"/>
</clipPath>
</defs>
</svg>
